<?xml version="1.0" standalone="no"?>
<!DOCTYPE svg PUBLIC "-//W3C//DTD SVG 20010904//EN"
 "http://www.w3.org/TR/2001/REC-SVG-20010904/DTD/svg10.dtd">
<svg version="1.0" xmlns="http://www.w3.org/2000/svg"
 width="866.000000pt" height="650.000000pt" viewBox="0 0 866.000000 650.000000"
 preserveAspectRatio="xMidYMid meet">

<g transform="translate(0.000000,650.000000) scale(0.100000,-0.100000)"
fill="#000000" stroke="none">
<path d="M6721 4181 c-14 -9 -81 -229 -176 -576 -44 -161 -60 -204 -80 -222
-43 -38 -147 -57 -173 -31 -7 7 -12 31 -12 53 0 23 -7 64 -15 91 -45 152 -177
206 -324 133 -56 -28 -64 -30 -78 -16 -14 13 -7 40 59 253 53 169 72 244 66
257 -7 14 -22 17 -76 17 -37 0 -73 -4 -81 -9 -12 -8 -121 -371 -193 -646 -17
-66 -38 -129 -47 -139 -38 -45 -160 -73 -189 -44 -7 7 -12 28 -12 47 0 105
-71 226 -146 251 -53 18 -133 8 -199 -24 -51 -26 -58 -27 -72 -13 -14 14 -9
39 59 254 55 176 72 243 66 257 -9 16 -20 18 -84 14 -51 -2 -78 -8 -84 -18 -9
-14 -154 -524 -209 -737 -10 -36 -18 -45 -63 -67 -56 -28 -129 -35 -145 -13
-6 6 -13 38 -16 71 -7 75 -50 161 -100 201 -35 27 -46 30 -110 30 -60 0 -82
-5 -130 -29 -53 -27 -59 -28 -74 -14 -14 15 -10 35 56 248 40 127 71 241 69
253 -3 21 -8 22 -82 21 -54 -1 -81 -6 -87 -15 -9 -16 -174 -600 -220 -779 -34
-135 -50 -173 -112 -264 -78 -116 -136 -166 -191 -166 -38 0 -50 31 -43 114 6
83 20 140 89 373 28 94 48 179 45 187 -5 12 -21 16 -66 16 -106 0 -102 6 -159
-202 -27 -101 -53 -194 -56 -208 -8 -35 -96 -176 -146 -233 -74 -83 -137 -98
-158 -37 -19 54 13 195 99 431 28 76 49 147 47 156 -3 16 -22 19 -167 25 -99
4 -169 12 -177 19 -8 6 -14 24 -14 39 0 16 -7 30 -16 34 -23 9 -122 -5 -132
-18 -4 -6 -19 -58 -31 -116 -44 -202 -156 -498 -245 -649 -20 -35 -35 -70 -32
-77 9 -23 89 -75 110 -72 39 6 176 295 253 533 25 77 49 144 54 149 12 14 159
-4 166 -20 3 -8 -15 -76 -40 -152 -76 -227 -84 -330 -32 -417 29 -51 91 -85
151 -85 54 0 135 42 194 101 27 27 57 49 67 49 10 0 26 -16 38 -37 31 -58 76
-83 148 -83 85 0 137 28 229 123 43 43 83 77 89 75 6 -2 27 -28 47 -58 52 -77
121 -111 222 -111 61 0 84 5 135 30 105 52 198 161 256 301 17 41 35 80 40 86
12 15 160 25 177 12 7 -7 12 -37 12 -84 0 -225 178 -350 387 -272 90 33 197
145 252 263 23 50 48 101 54 115 11 23 20 26 92 32 50 4 85 2 93 -4 7 -7 12
-36 12 -77 0 -105 23 -167 83 -226 81 -78 187 -97 304 -53 107 39 237 194 289
346 11 28 26 54 34 56 8 3 47 6 85 8 l70 3 0 -140 c0 -157 10 -189 68 -226 26
-16 46 -19 107 -17 68 3 80 7 133 42 32 21 77 63 100 92 23 29 50 53 59 53 9
1 43 -25 75 -57 66 -66 119 -90 223 -99 81 -6 178 15 267 60 81 39 203 149
203 181 0 31 -56 106 -78 106 -9 0 -37 -21 -62 -47 -95 -98 -210 -151 -303
-137 -59 9 -122 47 -137 84 -19 45 -3 57 88 62 208 14 362 153 363 330 1 171
-124 279 -287 249 -192 -36 -330 -205 -366 -448 -12 -83 -31 -122 -100 -205
-72 -87 -158 -117 -178 -62 -21 54 27 254 212 887 38 131 68 248 66 260 -3 20
-10 22 -73 25 -38 1 -76 -2 -84 -7z m622 -632 c23 -29 22 -105 -2 -145 -42
-68 -139 -122 -222 -123 -56 -1 -64 12 -48 72 26 98 98 192 164 215 40 15 86
7 108 -19z m-1279 -89 c31 -38 40 -83 31 -156 -17 -138 -98 -293 -179 -343
-36 -23 -95 -27 -128 -10 -66 36 -63 230 7 374 51 106 123 164 202 165 34 0
46 -5 67 -30z m-894 -48 c39 -39 47 -99 26 -198 -43 -211 -178 -363 -283 -319
-130 55 -46 439 115 525 56 29 108 26 142 -8z m-890 -50 c39 -39 47 -99 26
-198 -51 -253 -241 -417 -327 -282 -18 29 -20 44 -16 128 3 61 13 116 26 155
64 179 210 278 291 197z"/>
<path d="M1605 4056 c-177 -35 -415 -152 -415 -205 0 -27 62 -130 82 -136 10
-4 36 8 65 29 131 94 287 142 437 134 203 -12 340 -118 401 -311 114 -358 -71
-824 -395 -996 -110 -59 -312 -93 -326 -56 -9 22 75 355 212 837 35 124 61
233 58 242 -5 13 -22 16 -85 16 -70 0 -80 -2 -93 -22 -14 -23 -141 -474 -230
-823 -54 -209 -60 -225 -82 -225 -10 0 -48 14 -86 31 -53 25 -71 29 -82 20
-21 -18 -69 -138 -62 -156 17 -45 231 -105 401 -112 263 -11 483 66 662 231
288 267 413 723 295 1080 -66 201 -230 359 -430 412 -81 21 -242 26 -327 10z"/>
<path d="M3554 3881 c-69 -42 -100 -154 -61 -214 18 -28 70 -44 105 -33 60 19
112 97 112 166 0 83 -83 126 -156 81z"/>
</g>
</svg>
